<svg width="82" height="82" viewBox="0 0 82 82" fill="none" xmlns="http://www.w3.org/2000/svg">
<path d="M30.4586 0.800049C26.7986 0.800049 23.8 3.79864 23.8 7.45864V26.7208C23.8 30.3808 26.7986 33.3793 30.4586 33.3793H49.7207C53.3807 33.3793 56.3793 30.3808 56.3793 26.7208V7.45864C56.3795 7.41877 56.3783 7.37891 56.3758 7.33911C56.1366 3.74905 53.2014 0.800049 49.5414 0.800049H30.4586ZM30.4586 4.40005H49.5414C51.2787 4.40005 52.6549 5.76546 52.7793 7.57114V26.7208C52.7793 28.4608 51.4607 29.7793 49.7207 29.7793H30.4586C28.7186 29.7793 27.4 28.4608 27.4 26.7208V7.45864C27.4 5.71864 28.7186 4.40005 30.4586 4.40005ZM38.2 9.80005V15.2001H32.8V18.8001H38.2V24.2001H41.8V18.8001H47.2V15.2001H41.8V9.80005H38.2ZM7.05862 15.2001C3.39862 15.2001 0.400024 18.1986 0.400024 21.8586V81.8001H81.4V21.8586C81.4 18.1986 78.4014 15.2001 74.7414 15.2001H59.8V18.8001H74.7414C76.4814 18.8001 77.8 20.1186 77.8 21.8586V78.2001H49V58.4001H47.2H40.7207H31V78.2001H4.00002V21.8586C4.00002 20.1186 5.31862 18.8001 7.05862 18.8001H20.2V15.2001H7.05862ZM7.5262 38.5262V53.0739H23.8739V38.5262H22H14.6207H7.5262ZM30.9262 38.5262V53.0739H49.0739V38.5262H47.2H39.8207H30.9262ZM56.1262 38.5262V53.0739H72.4739V38.5262H70.6H65.0207H56.1262ZM11.2739 42.2739H14.6207H20.1262V49.3262H11.2739V42.2739ZM34.6739 42.2739H39.8207H45.3262V49.3262H34.6739V42.2739ZM59.8739 42.2739H65.0207H68.7262V49.3262H59.8739V42.2739ZM7.5262 58.3262V72.8739H23.8739V58.3262H22H14.6207H7.5262ZM56.1262 58.3262V72.8739H72.4739V58.3262H70.6H65.0207H56.1262ZM34.6 62.0001H40.7207H45.4V78.2001H34.6V62.0001ZM11.2739 62.0739H14.6207H20.1262V69.1262H11.2739V62.0739ZM59.8739 62.0739H65.0207H68.7262V69.1262H59.8739V62.0739Z" fill="#16A34A"/>
</svg>
