<svg width="40" height="42" viewBox="0 0 40 42" fill="none" xmlns="http://www.w3.org/2000/svg">
<path d="M30.8759 0.000488281H8.62915C3.8634 0.000488281 0 3.95289 0 8.82841V31.5876C0 36.4631 3.8634 40.4155 8.62915 40.4155H30.8759C35.6416 40.4155 39.505 36.4631 39.505 31.5876V8.82841C39.505 3.95289 35.6416 0.000488281 30.8759 0.000488281Z" fill="white"/>
<path d="M22.1793 41.2884V25.5154H27.4552L28.245 19.3684H22.1793V15.4436C22.1793 13.6639 22.6719 12.451 25.2151 12.451L28.4588 12.4496V6.95179C27.8975 6.87685 25.9721 6.70947 23.7322 6.70947C19.0555 6.70947 15.8538 9.57413 15.8538 14.8351V19.3684H10.5645V25.5154H15.8538V41.2884H22.1793Z" fill="#1E3A8A"/>
</svg>
