<svg width="40" height="41" viewBox="0 0 40 41" fill="none" xmlns="http://www.w3.org/2000/svg">
<path d="M20 3.75602C25.3402 3.75602 25.9727 3.77681 28.0816 3.87525C30.0316 3.9663 31.0906 4.29962 31.7954 4.57974C32.7289 4.95091 33.3952 5.39437 34.095 6.11031C34.7949 6.82626 35.2283 7.50793 35.5911 8.4629C35.865 9.18396 36.1908 10.2673 36.2798 12.2622C36.376 14.4197 36.3963 15.0668 36.3963 20.5301C36.3963 25.9933 36.376 26.6404 36.2798 28.7979C36.1908 30.7928 35.865 31.8762 35.5911 32.5972C35.2283 33.5522 34.7949 34.2339 34.095 34.9498C33.3952 35.6658 32.7289 36.1092 31.7954 36.4803C31.0906 36.7605 30.0316 37.0938 28.0816 37.1849C25.973 37.2833 25.3405 37.3041 20 37.3041C14.6594 37.3041 14.0269 37.2833 11.9183 37.1849C9.9683 37.0938 8.90932 36.7605 8.20457 36.4803C7.27102 36.1092 6.6047 35.6658 5.90488 34.9498C5.20506 34.2339 4.77158 33.5522 4.40885 32.5972C4.13495 31.8762 3.80914 30.7928 3.72014 28.798C3.62392 26.6404 3.6036 25.9933 3.6036 20.5301C3.6036 15.0668 3.62392 14.4197 3.72014 12.2622C3.80914 10.2673 4.13495 9.18396 4.40885 8.4629C4.77158 7.50793 5.20506 6.82626 5.90488 6.11031C6.6047 5.39437 7.27102 4.95091 8.20457 4.57974C8.90932 4.29962 9.9683 3.9663 11.9182 3.87525C14.0272 3.77681 14.6597 3.75602 20 3.75602ZM20 0.0693359C14.5682 0.0693359 13.8872 0.0928894 11.754 0.192464C9.62518 0.291876 8.17139 0.637706 6.89916 1.14354C5.58398 1.66642 4.46863 2.36604 3.35677 3.50351C2.24491 4.64098 1.56105 5.78203 1.04993 7.1275C0.555493 8.42903 0.21745 9.91631 0.120276 12.0942C0.0229437 14.2765 0 14.9732 0 20.5301C0 26.0869 0.0229437 26.7837 0.120276 28.966C0.21745 31.1438 0.555493 32.6311 1.04993 33.9327C1.56105 35.278 2.24491 36.4192 3.35677 37.5566C4.46863 38.6941 5.58398 39.3937 6.89916 39.9166C8.17139 40.4224 9.62518 40.7683 11.754 40.8677C13.8872 40.9673 14.5682 40.9907 20 40.9907C25.4317 40.9907 26.1128 40.9673 28.2459 40.8677C30.3747 40.7683 31.8285 40.4224 33.1008 39.9166C34.4159 39.3937 35.5313 38.6941 36.6431 37.5566C37.755 36.4192 38.4389 35.2781 38.95 33.9327C39.4444 32.6311 39.7825 31.1438 39.8796 28.966C39.977 26.7837 40 26.0869 40 20.5301C40 14.9732 39.977 14.2765 39.8796 12.0942C39.7825 9.91631 39.4444 8.42903 38.95 7.1275C38.4389 5.78203 37.755 4.64098 36.6431 3.50351C35.5313 2.36604 34.4159 1.66642 33.1008 1.14354C31.8285 0.637706 30.3747 0.291876 28.2459 0.192464C26.1128 0.0928894 25.4317 0.0693359 20 0.0693359ZM20 10.0232C14.3279 10.0232 9.72966 14.7273 9.72966 20.5301C9.72966 26.3328 14.3279 31.037 20 31.037C25.6721 31.037 30.2703 26.3328 30.2703 20.5301C30.2703 14.7273 25.6721 10.0232 20 10.0232ZM20 27.3503C16.3181 27.3503 13.3333 24.2968 13.3333 20.5301C13.3333 16.7634 16.3181 13.7098 20 13.7098C23.6818 13.7098 26.6667 16.7634 26.6667 20.5301C26.6667 24.2968 23.6818 27.3503 20 27.3503ZM33.076 9.60809C33.076 10.9641 32.0015 12.0634 30.676 12.0634C29.3505 12.0634 28.276 10.9641 28.276 9.60809C28.276 8.25206 29.3505 7.15284 30.676 7.15284C32.0015 7.15284 33.076 8.25206 33.076 9.60809Z" fill="white"/>
</svg>
