<svg width="87" height="85" viewBox="0 0 87 85" fill="none" xmlns="http://www.w3.org/2000/svg">
<path d="M11.6688 23.2853V25.3021C11.6688 27.9077 13.789 30.0272 16.3945 30.0272H17.7229C18.2382 32.2741 19.3428 34.2935 20.8656 35.9228C15.5771 39.3977 14.1572 46.1588 18.1618 50.9443C17.3746 52.6952 17.724 54.8553 19.0198 56.2755L22.4034 60.0713C22.9329 60.6671 23.8455 60.7168 24.4363 60.1895L25.5281 59.2174C26.9395 57.9462 24.9962 55.7997 23.595 57.0803L21.1709 54.3594C20.3807 53.5091 20.463 52.0621 21.3453 51.3092C22.2062 50.5279 23.6401 50.5968 24.3969 51.4837L26.8224 54.206C25.5176 55.4927 27.416 57.5279 28.7921 56.3064C28.792 56.3065 29.5056 55.6706 29.5056 55.6706C30.2766 55.1533 30.6019 54.1 29.9315 53.3632C29.9316 53.3633 26.5494 49.5675 26.5494 49.5675C24.9711 47.7294 22.0847 47.3477 20.0756 48.6869C17.3495 44.8941 18.9651 40.2989 23.1622 37.8783C27.1633 40.6996 33.3422 40.7 37.3436 37.8794C41.7674 40.4211 43.259 45.3613 40.0407 49.1593C33.71 47.7211 32.407 57.2913 38.8978 57.6304C42.3141 57.7352 44.4661 53.5224 42.4238 50.8247C46.3264 46.0097 44.8898 39.3924 39.6406 35.9243C41.1642 34.2946 42.2692 32.2748 42.7847 30.0272H44.1131C46.7186 30.0272 48.8388 27.9077 48.8388 25.3021V23.2854C48.8388 20.8016 46.8947 18.7825 44.4472 18.6081L46.6609 13.3977C49.2351 6.99559 43.7235 -0.199508 36.9166 0.00422928C36.9168 0.00414285 23.5907 0.00414307 23.5907 0.00414307C16.753 -0.181125 11.2576 6.99419 13.8721 13.4597C13.8719 13.4596 16.06 18.6081 16.06 18.6081C13.6129 18.7827 11.6688 20.8018 11.6688 23.2853ZM38.8977 54.749C37.0043 54.7159 37.0046 51.9005 38.8978 51.8677C40.7912 51.9008 40.7909 54.7162 38.8977 54.749ZM40.2371 27.1807C39.7022 40.3755 20.8012 40.3672 20.2705 27.1805C20.2705 27.1807 20.2705 22.8809 20.2705 22.8809H40.2371V27.1807ZM45.9575 23.2853V25.3021C45.9575 26.3186 45.1303 27.1458 44.1131 27.1458H43.1198V21.7321L43.2373 21.4557H44.1131C45.1303 21.4557 45.9575 22.2766 45.9575 23.2853ZM17.3625 6.07626C18.7525 4.07848 21.0809 2.88544 23.5908 2.88544H36.9168C41.7427 2.71837 45.7847 7.80015 43.985 12.3328C43.9851 12.3327 40.9639 19.4415 40.9639 19.4415C40.9523 19.4686 40.7267 19.9996 40.7267 19.9996H19.7809L19.5555 19.4694C19.5434 19.4409 16.5479 12.3946 16.5479 12.3946C15.7558 10.2625 16.0527 7.95939 17.3625 6.07626ZM14.5501 23.2853C14.5501 22.2766 15.3773 21.4557 16.3945 21.4557H17.2702L17.3878 21.7322V27.1459H16.3945C15.3773 27.1459 14.5501 26.3186 14.5501 25.3021V23.2853Z" fill="#16A34A"/>
<path d="M25.9684 12.8828H28.8131V15.7268C28.8131 16.5224 29.4575 17.1675 30.2538 17.1675C31.0501 17.1675 31.6944 16.5224 31.6944 15.7268V12.8828H34.5392C35.3355 12.8828 35.9798 12.2377 35.9798 11.4421C35.9798 10.6465 35.3355 10.0015 34.5392 10.0015H31.6944V7.15745C31.6944 6.36185 31.0501 5.7168 30.2538 5.7168C29.4575 5.7168 28.8131 6.36185 28.8131 7.15745V10.0015H25.9684C24.0746 10.0331 24.075 12.8513 25.9684 12.8828ZM36.7367 43.2238C37.8301 43.3464 39.0609 43.2141 39.127 41.8787C39.1724 40.5169 37.8298 40.2556 36.7367 40.3426C35.0471 40.3425 33.5417 41.3977 32.8987 43.0395C32.4457 44.2185 31.4074 44.981 30.2538 44.981C29.1001 44.981 28.0618 44.2185 27.6046 43.0304C26.9659 41.3977 25.4605 40.3425 23.7708 40.3425C22.6835 40.2559 21.3294 40.5172 21.3805 41.8789C21.4185 42.6745 22.0615 43.3083 22.8873 43.2506C23.6775 43.1774 24.5868 43.1498 24.9189 44.0723C26.7036 49.0622 33.7984 49.065 35.5845 44.0819C35.7899 43.5601 36.2415 43.2238 36.7367 43.2238Z" fill="#16A34A"/>
<path d="M8.64395 74.9184H33.1351V82.1217H27.3725C25.4836 82.1514 25.4748 84.9715 27.3726 85.003C27.3725 85.003 53.3043 85.003 53.3043 85.003C55.19 84.9741 55.2046 82.1536 53.3042 82.1217C53.3043 82.1217 47.5417 82.1217 47.5417 82.1217V74.9184H72.0328C76.7994 74.9184 80.6768 71.041 80.6768 66.2745V47.5178C80.6459 45.6301 77.8282 45.6186 77.7954 47.5178V61.9525H53.3043V58.0048C53.3043 53.2833 51.5794 48.8502 48.4477 45.5215C47.9004 44.9418 46.9888 44.9151 46.4105 45.4595C45.8309 46.0054 45.8042 46.9171 46.3486 47.4967C48.9767 50.288 50.423 54.0205 50.423 58.0048V61.9525H10.0846V58.0048C10.0846 54.0289 11.5309 50.3021 14.159 47.5108C14.4126 47.2401 14.5536 46.8809 14.5501 46.5091C14.5975 45.1966 12.7954 44.571 12.0078 45.5933C8.90843 48.9135 7.20328 53.3184 7.20328 58.0048V61.9525H2.88131V21.6142C2.88131 18.4367 5.46578 15.8515 8.64394 15.8515H11.1651C13.0535 15.8266 13.0613 12.9986 11.165 12.9702C11.1651 12.9702 8.64394 12.9702 8.64394 12.9702C3.8774 12.9702 0 16.8476 0 21.6142V66.2745C0 71.041 3.87741 74.9184 8.64395 74.9184ZM44.6604 82.1217H36.0164V74.9184H44.6604V82.1217ZM2.88133 64.8338H77.7954V66.2745C77.7954 69.4527 75.211 72.0371 72.0328 72.0371H8.64395C5.46579 72.0371 2.88133 69.4527 2.88133 66.2745V64.8338ZM76.3548 21.6142H73.4735V18.7328C73.4735 17.1438 72.1805 15.8515 70.5922 15.8515H67.7109C66.1225 15.8515 64.8295 17.1438 64.8295 18.7328V21.6142H61.9482C60.3598 21.6142 59.0669 22.9064 59.0669 24.4955V27.3768C59.0669 28.9659 60.3598 30.2581 61.9482 30.2581H64.8295V33.1394C64.8295 34.7285 66.1225 36.0207 67.7109 36.0207H70.5922C72.1805 36.0207 73.4735 34.7285 73.4735 33.1394V30.2581H76.3548C77.9432 30.2581 79.2361 28.9659 79.2361 27.3768V24.4955C79.2361 22.9064 77.9432 21.6142 76.3548 21.6142ZM76.3548 27.3768C69.7104 27.4203 70.6414 26.5158 70.5922 33.1394H67.7109C67.6672 26.4951 68.572 27.4259 61.9482 27.3768V24.4955C68.5926 24.4519 67.6616 25.3564 67.7109 18.7328H70.5922C70.6358 25.3771 69.7311 24.4462 76.3548 24.4955V27.3768Z" fill="#16A34A"/>
<path d="M78.6595 7.20752H59.644C55.3544 7.20752 51.8639 10.6741 51.8639 14.9349V31.7374C50.7581 32.1679 49.2035 31.8415 48.4086 31.2428C47.9288 30.8813 47.2788 30.8546 46.7752 31.1746C46.2687 31.4926 46.0112 32.0912 46.1294 32.6772C46.7738 35.8842 49.2668 38.6537 52.3802 39.6554C53.5071 42.645 56.3772 44.6646 59.644 44.6646H78.6595C82.9491 44.6646 86.4396 41.198 86.4396 36.9372V14.9349C86.4396 10.6741 82.9491 7.20752 78.6595 7.20752ZM83.5583 36.9372C83.5583 39.6096 81.3608 41.7833 78.6595 41.7833H59.644C57.3986 41.7833 55.4501 40.268 54.907 38.0986C54.7747 37.5654 54.3484 37.1539 53.811 37.0392C52.396 36.7842 51.1346 35.9105 50.2333 34.8044C51.7599 34.8848 54.5229 34.4497 54.7453 32.5499C54.7452 32.5498 54.7452 14.9349 54.7452 14.9349C54.7452 12.2625 56.9428 10.0888 59.644 10.0888H78.6595C81.3608 10.0888 83.5583 12.2625 83.5583 14.9349V36.9372Z" fill="#16A34A"/>
</svg>
