<svg width="76" height="83" viewBox="0 0 76 83" fill="none" xmlns="http://www.w3.org/2000/svg">
<path d="M38.8157 63.1162V59.5854H36.0574V63.1162H32.5457V65.8895H36.0574V69.4236H38.8157V65.8895H42.3307V63.1162H38.8157ZM38.8157 63.1162V59.5854H36.0574V63.1162H32.5457V65.8895H36.0574V69.4236H38.8157V65.8895H42.3307V63.1162H38.8157ZM0 38.2063V47.0992H7.53448V83H68.1379V47.0992H76V38.2063H0ZM43.3462 71.5117V73.4583H31.5564V71.5117C26.0431 69.1897 22.1743 63.7058 22.1907 57.3128H52.7119C52.7119 57.3128 52.7119 57.3128 52.7152 57.3128C52.7316 63.7058 48.8595 69.1897 43.3462 71.5117ZM53.2197 52.2175L49.4197 56.0349H43.7197L50.3697 49.3488C51.1559 48.5583 52.4334 48.5583 53.2197 49.3488C53.6128 49.744 53.8093 50.2644 53.8093 50.7815C53.8093 51.3019 53.6128 51.8223 53.2197 52.2175ZM38.8157 59.5854H36.0574V63.1162H32.5457V65.8895H36.0574V69.4236H38.8157V65.8895H42.3307V63.1162H38.8157V59.5854ZM47.1724 16.4683H28.5C23.3929 16.4683 19.3276 20.885 19.3276 26.0198V36.5595H25.8793V27.6667C25.8793 27.1035 26.3019 26.6786 26.8621 26.6786C27.4222 26.6786 27.8448 27.1035 27.8448 27.6667V36.5595H47.8276V27.6667C47.8276 27.1035 48.2502 26.6786 48.8103 26.6786C49.3705 26.6786 49.7931 27.1035 49.7931 27.6667V36.5595H56.3448V26.0198C56.3448 20.918 52.2467 16.4683 47.1724 16.4683ZM37.8362 0C33.7512 0 30.4229 3.34635 30.4229 7.45353C30.4229 11.5574 33.7184 14.9038 37.8362 14.9038C41.8884 14.9038 45.2462 11.5574 45.2462 7.45353C45.2462 3.34635 41.9212 0 37.8362 0Z" fill="#16A34A"/>
</svg>
