<svg width="72" height="72" viewBox="0 0 72 72" fill="none" xmlns="http://www.w3.org/2000/svg">
<path d="M19.5 3H7.125C4.84684 3 3 4.84684 3 7.125V19.5M52.5 3H64.875C67.1532 3 69 4.84684 69 7.125V19.5M3 52.5V64.875C3 67.1532 4.84684 69 7.125 69H19.5M69 52.5V64.875C69 67.1532 67.1532 69 64.875 69H52.5M11.25 36C11.25 36 18.3214 19.5 36 19.5C53.6785 19.5 60.75 36 60.75 36C60.75 36 53.6785 52.5 36 52.5C18.3214 52.5 11.25 36 11.25 36ZM44.25 36C44.25 40.5565 40.5565 44.25 36 44.25C31.4435 44.25 27.75 40.5565 27.75 36C27.75 31.4435 31.4435 27.75 36 27.75C40.5565 27.75 44.25 31.4435 44.25 36Z" stroke="#16A34A" stroke-width="6" stroke-linecap="round" stroke-linejoin="round"/>
</svg>
