<svg width="40" height="41" viewBox="0 0 40 41" fill="none" xmlns="http://www.w3.org/2000/svg">
<path d="M30.8759 0H8.62915C3.8634 0 0 3.9524 0 8.82793V31.5871C0 36.4626 3.8634 40.415 8.62915 40.415H30.8759C35.6416 40.415 39.505 36.4626 39.505 31.5871V8.82793C39.505 3.9524 35.6416 0 30.8759 0Z" fill="white"/>
<path d="M9.87634 29.5629L11.2936 24.172C10.1506 22.072 9.78751 19.6214 10.2708 17.2701C10.7541 14.9187 12.0515 12.8242 13.9248 11.3709C15.7981 9.91761 18.1217 9.20304 20.4693 9.35828C22.8168 9.51352 25.0308 10.5282 26.7049 12.2161C28.3791 13.904 29.4011 16.1519 29.5835 18.5473C29.7659 20.9427 29.0964 23.325 27.6978 25.2569C26.2992 27.1888 24.2654 28.5409 21.9696 29.0649C19.6738 29.5889 17.27 29.2498 15.1992 28.1098L9.87634 29.5629ZM15.4559 26.0924L15.7851 26.2919C17.2849 27.1999 19.0368 27.5756 20.7676 27.3606C22.4984 27.1455 24.111 26.3517 25.3539 25.1029C26.5969 23.8541 27.4005 22.2204 27.6395 20.4565C27.8785 18.6925 27.5394 16.8973 26.6752 15.3507C25.8109 13.8041 24.4701 12.5929 22.8614 11.9059C21.2528 11.2189 19.467 11.0946 17.782 11.5525C16.0971 12.0104 14.6078 13.0247 13.5461 14.4374C12.4845 15.85 11.9103 17.5816 11.9129 19.3624C11.9115 20.8389 12.3113 22.2869 13.0678 23.5451L13.2743 23.8928L12.482 26.9017L15.4559 26.0924Z" fill="#1E3A8A"/>
<path fill-rule="evenodd" clip-rule="evenodd" d="M23.4456 20.7467C23.2526 20.5877 23.0266 20.4758 22.7849 20.4195C22.5432 20.3632 22.2921 20.364 22.0507 20.4218C21.688 20.5757 21.4537 21.1569 21.2193 21.4476C21.1699 21.5173 21.0973 21.5661 21.0151 21.585C20.9329 21.6039 20.8469 21.5915 20.773 21.5501C19.4452 21.0191 18.3323 20.045 17.615 18.7863C17.5538 18.7078 17.5248 18.6081 17.5342 18.5082C17.5436 18.4082 17.5905 18.3159 17.6652 18.2507C17.9265 17.9864 18.1185 17.6591 18.2231 17.299C18.2464 16.9018 18.1573 16.5062 17.9665 16.1593C17.819 15.6729 17.5382 15.2399 17.1575 14.9113C16.9611 14.8211 16.7433 14.7909 16.5304 14.8242C16.3176 14.8576 16.1187 14.9531 15.9579 15.0994C15.6786 15.3454 15.4569 15.6524 15.3092 15.9976C15.1614 16.3428 15.0914 16.7174 15.1042 17.0938C15.105 17.3053 15.1313 17.5158 15.1823 17.7207C15.3119 18.213 15.5111 18.6834 15.7737 19.1169C15.9632 19.4489 16.17 19.7704 16.3931 20.0799C17.1181 21.0966 18.0296 21.9597 19.0768 22.6215C19.6023 22.9578 20.164 23.2312 20.7507 23.4364C21.3601 23.7185 22.033 23.8269 22.6979 23.7498C23.0767 23.6913 23.4357 23.5385 23.7431 23.305C24.0506 23.0715 24.2971 22.7643 24.4611 22.4106C24.5574 22.197 24.5866 21.9581 24.5447 21.7268C24.4443 21.2538 23.825 20.9746 23.4456 20.7467Z" fill="#1E3A8A"/>
</svg>
