<svg width="170" height="78" viewBox="0 0 170 78" fill="none" xmlns="http://www.w3.org/2000/svg">
<path d="M31 29.245C31 29.245 34.295 24.2581 39.8975 21.0235C45.5 17.7889 55.1503 23.7113 55.1503 23.7113C55.1503 23.7113 58.5 33.4843 55.1503 36.834C51.8006 40.1837 44.1873 43.0002 44.1873 43.0002V29.245H31Z" fill="white"/>
<path d="M22.1878 32.6392C22.1878 32.6392 17.201 29.3442 13.9663 23.7417C10.7317 18.1392 16.6541 8.48886 16.6541 8.48886C16.6541 8.48886 26.4272 5.13916 29.7769 8.48885C33.1266 11.8385 35.943 19.4518 35.943 19.4518L22.1878 19.4518L22.1878 32.6392Z" fill="white"/>
<path d="M25.6391 45.755C25.6391 45.755 22.3441 50.7419 16.7416 53.9765C11.1391 57.2111 1.48876 51.2887 1.48876 51.2887C1.48876 51.2887 -1.86093 41.5157 1.48876 38.166C4.83846 34.8163 12.4517 31.9998 12.4517 31.9998L12.4517 45.755L25.6391 45.755Z" fill="white"/>
<path d="M34.7552 42C34.7552 42 39.7421 45.295 42.9767 50.8975C46.2113 56.5 40.2889 66.1503 40.2889 66.1503C40.2889 66.1503 30.5158 69.5 27.1661 66.1503C23.8164 62.8006 21 55.1873 21 55.1873L34.7552 55.1873L34.7552 42Z" fill="white"/>
<path d="M64.488 26.672L66.024 26.736C67.624 26.736 69.096 26.48 70.44 25.968C71.2293 25.6693 71.8587 25.2 72.328 24.56C72.8187 23.92 73.064 23.1307 73.064 22.192C73.064 18.8213 71.0373 17.136 66.984 17.136L63.656 17.264V35.696C63.656 35.9947 63.6773 36.2293 63.72 36.4C63.7627 36.5707 63.9013 36.7307 64.136 36.88C64.3707 37.0293 64.7227 37.104 65.192 37.104H66.408V38H58.28V37.104H59.304C59.7733 37.104 60.1253 37.0293 60.36 36.88C60.5947 36.7307 60.7333 36.5707 60.776 36.4C60.8187 36.2293 60.84 35.9947 60.84 35.696V17.968C60.84 17.4773 60.7333 17.1253 60.52 16.912C60.328 16.6773 59.9227 16.56 59.304 16.56H58.28V15.6H63.208L69.288 15.28C71.208 15.28 72.7547 15.696 73.928 16.528C75.1013 17.36 75.688 18.5333 75.688 20.048C75.688 21.5413 75.336 22.8533 74.632 23.984C73.9493 25.0933 73.096 25.9253 72.072 26.48C70.1307 27.504 68.392 28.016 66.856 28.016C65.96 28.016 65.256 27.9947 64.744 27.952L64.488 26.672ZM84.6325 38H77.7205V37.104H78.2325C78.8085 37.104 79.1712 37.008 79.3205 36.816C79.4912 36.624 79.5765 36.3147 79.5765 35.888V26.288C79.5765 25.8827 79.4378 25.5947 79.1605 25.424C78.9045 25.232 78.4245 25.136 77.7205 25.136V24.24C78.1472 24.24 78.7872 24.0907 79.6405 23.792C80.5152 23.472 81.1765 23.1733 81.6245 22.896L82.2005 22.768V26.736C82.9685 25.0507 83.8432 23.9413 84.8245 23.408C85.8058 22.8533 87.2565 22.576 89.1765 22.576L88.9845 26.288H88.0245C88.0245 25.9893 87.9072 25.7013 87.6725 25.424C87.4592 25.1467 87.1072 25.008 86.6165 25.008C85.5498 25.008 84.5472 25.584 83.6085 26.736C82.6698 27.888 82.2005 28.9973 82.2005 30.064V35.696C82.2005 36.0373 82.2112 36.2827 82.2325 36.432C82.2752 36.5813 82.4032 36.7307 82.6165 36.88C82.8298 37.0293 83.1605 37.104 83.6085 37.104H84.6325V38ZM102.882 34.096L103.458 34.672C102.093 37.1893 99.6393 38.448 96.098 38.448C94.4553 38.448 93.0473 37.7227 91.874 36.272C90.722 34.8213 90.146 33.2 90.146 31.408C90.146 28.9973 90.9247 26.9387 92.482 25.232C94.0607 23.504 95.97 22.64 98.21 22.64C99.2767 22.64 100.215 22.9493 101.026 23.568C102.477 24.6987 103.202 26.16 103.202 27.952C103.202 28.208 103.149 28.5173 103.042 28.88C102.957 29.2427 102.882 29.424 102.818 29.424L92.514 29.744C92.514 31.408 93.0367 32.944 94.082 34.352C95.1273 35.76 96.3967 36.464 97.89 36.464C98.9567 36.464 99.938 36.2507 100.834 35.824C101.751 35.376 102.434 34.8 102.882 34.096ZM92.834 28.464L100.322 28.144C100.365 28.144 100.386 27.952 100.386 27.568C100.386 26.4587 100.055 25.6693 99.394 25.2C98.754 24.7307 97.858 24.496 96.706 24.496C95.5753 24.496 94.6473 24.848 93.922 25.552C93.1967 26.256 92.834 27.2267 92.834 28.464ZM131.44 38H125.872V37.104H126C126.234 37.104 126.426 36.9867 126.576 36.752C126.746 36.5173 126.832 36.2293 126.832 35.888V27.76C126.832 26.9067 126.618 26.2027 126.192 25.648C125.786 25.0933 125.253 24.816 124.592 24.816C123.952 24.816 123.354 24.9653 122.8 25.264C122.266 25.5627 121.829 25.9253 121.488 26.352C121.168 26.7787 120.88 27.2267 120.624 27.696C120.197 28.528 119.984 29.1467 119.984 29.552V35.824C119.984 36.6773 120.453 37.104 121.392 37.104H121.968V38H116.4V37.104H116.592C116.784 37.104 116.954 36.9867 117.104 36.752C117.274 36.5173 117.36 36.2293 117.36 35.888V27.76C117.36 26.9067 117.157 26.2027 116.752 25.648C116.346 25.0933 115.792 24.816 115.088 24.816C114.405 24.816 113.754 25.04 113.135 25.488C112.517 25.936 112.026 26.4587 111.664 27.056C110.938 28.272 110.576 29.1253 110.576 29.616V35.696C110.576 36.0373 110.586 36.2827 110.608 36.432C110.65 36.5813 110.778 36.7307 110.992 36.88C111.205 37.0293 111.536 37.104 111.984 37.104H112.56V38H106.096V37.104H106.608C107.184 37.104 107.546 37.008 107.696 36.816C107.866 36.624 107.952 36.3147 107.952 35.888V26.288C107.952 25.8827 107.813 25.5947 107.536 25.424C107.28 25.232 106.8 25.136 106.096 25.136V24.24C106.522 24.24 107.162 24.0907 108.016 23.792C108.89 23.472 109.552 23.1733 110 22.896L110.576 22.768V26.864C111.194 25.4133 111.93 24.3467 112.784 23.664C113.658 22.9813 114.842 22.64 116.336 22.64C117.018 22.64 117.616 22.7893 118.128 23.088C118.64 23.3653 119.024 23.7387 119.28 24.208C119.706 25.04 119.941 25.9253 119.984 26.864C120.474 25.4347 121.168 24.3787 122.064 23.696C122.96 22.992 124.165 22.64 125.68 22.64C126.448 22.64 127.098 22.8107 127.632 23.152C128.165 23.4933 128.549 23.9307 128.784 24.464C129.189 25.3813 129.392 26.288 129.392 27.184V35.824C129.392 36.1227 129.413 36.3467 129.456 36.496C129.562 36.9013 130.01 37.104 130.8 37.104H131.44V38ZM136.883 15.728C137.374 15.728 137.747 15.888 138.003 16.208C138.281 16.528 138.419 16.944 138.419 17.456C138.419 17.9467 138.217 18.3627 137.811 18.704C137.406 19.024 136.958 19.184 136.467 19.184C135.998 19.184 135.625 19.024 135.347 18.704C135.091 18.384 134.963 17.9893 134.963 17.52C134.963 17.0293 135.166 16.6133 135.571 16.272C135.977 15.9093 136.414 15.728 136.883 15.728ZM140.403 38H133.939V37.104H134.451C135.027 37.104 135.39 37.008 135.539 36.816C135.71 36.624 135.795 36.3147 135.795 35.888V26.288C135.795 25.8827 135.657 25.5947 135.379 25.424C135.123 25.232 134.643 25.136 133.939 25.136V24.24C134.366 24.24 135.006 24.0907 135.859 23.792C136.734 23.472 137.395 23.1733 137.843 22.896L138.419 22.768V35.696C138.419 36.0373 138.43 36.2827 138.451 36.432C138.494 36.5813 138.622 36.7307 138.835 36.88C139.049 37.0293 139.379 37.104 139.827 37.104H140.403V38ZM155.195 34.096L155.771 34.672C154.405 37.1893 151.952 38.448 148.411 38.448C146.768 38.448 145.36 37.7227 144.187 36.272C143.035 34.8213 142.459 33.2 142.459 31.408C142.459 28.9973 143.237 26.9387 144.795 25.232C146.373 23.504 148.283 22.64 150.523 22.64C151.589 22.64 152.528 22.9493 153.339 23.568C154.789 24.6987 155.515 26.16 155.515 27.952C155.515 28.208 155.461 28.5173 155.355 28.88C155.269 29.2427 155.195 29.424 155.131 29.424L144.827 29.744C144.827 31.408 145.349 32.944 146.395 34.352C147.44 35.76 148.709 36.464 150.203 36.464C151.269 36.464 152.251 36.2507 153.147 35.824C154.064 35.376 154.747 34.8 155.195 34.096ZM145.147 28.464L152.635 28.144C152.677 28.144 152.699 27.952 152.699 27.568C152.699 26.4587 152.368 25.6693 151.707 25.2C151.067 24.7307 150.171 24.496 149.019 24.496C147.888 24.496 146.96 24.848 146.235 25.552C145.509 26.256 145.147 27.2267 145.147 28.464ZM165.164 38H158.252V37.104H158.764C159.34 37.104 159.702 37.008 159.852 36.816C160.022 36.624 160.108 36.3147 160.108 35.888V26.288C160.108 25.8827 159.969 25.5947 159.692 25.424C159.436 25.232 158.956 25.136 158.252 25.136V24.24C158.678 24.24 159.318 24.0907 160.172 23.792C161.046 23.472 161.708 23.1733 162.156 22.896L162.732 22.768V26.736C163.5 25.0507 164.374 23.9413 165.356 23.408C166.337 22.8533 167.788 22.576 169.708 22.576L169.516 26.288H168.556C168.556 25.9893 168.438 25.7013 168.204 25.424C167.99 25.1467 167.638 25.008 167.148 25.008C166.081 25.008 165.078 25.584 164.14 26.736C163.201 27.888 162.732 28.9973 162.732 30.064V35.696C162.732 36.0373 162.742 36.2827 162.764 36.432C162.806 36.5813 162.934 36.7307 163.148 36.88C163.361 37.0293 163.692 37.104 164.14 37.104H165.164V38Z" fill="white"/>
<path d="M74.9688 43.4531C74.9688 44.2031 74.8281 44.9062 74.5469 45.5625C74.2656 46.2188 73.8854 46.8229 73.4062 47.375C72.9375 47.9167 72.3906 48.4062 71.7656 48.8438C71.1406 49.2812 70.4844 49.651 69.7969 49.9531C69.1094 50.2448 68.4062 50.474 67.6875 50.6406C66.9792 50.7969 66.3021 50.875 65.6562 50.875H65.5625V50.5625C66.5 50.4479 67.4062 50.1615 68.2812 49.7031C69.1667 49.2344 69.9479 48.6458 70.625 47.9375C71.3125 47.2292 71.8594 46.4271 72.2656 45.5312C72.6823 44.6354 72.8906 43.6979 72.8906 42.7188C72.8906 42.1875 72.8177 41.7083 72.6719 41.2812C72.5365 40.8438 72.3281 40.474 72.0469 40.1719C71.776 39.8594 71.4323 39.6198 71.0156 39.4531C70.599 39.2865 70.1146 39.2031 69.5625 39.2031C68.4479 39.2031 67.4375 39.4427 66.5312 39.9219C65.6354 40.3906 64.8385 41.0208 64.1406 41.8125C63.4427 42.5938 62.8385 43.4948 62.3281 44.5156C61.8281 45.5365 61.4115 46.599 61.0781 47.7031C60.7552 48.8073 60.5156 49.9167 60.3594 51.0312C60.2031 52.1354 60.125 53.1615 60.125 54.1094C60.125 54.8698 60.1719 55.6406 60.2656 56.4219C60.3698 57.1927 60.5312 57.9375 60.75 58.6562C60.9688 59.375 61.25 60.0469 61.5938 60.6719C61.9375 61.3073 62.349 61.8594 62.8281 62.3281C63.3177 62.7969 63.8802 63.1667 64.5156 63.4375C65.151 63.7083 65.875 63.8438 66.6875 63.8438C67.25 63.8438 67.7917 63.7396 68.3125 63.5312C68.8333 63.3229 69.3229 63.0469 69.7812 62.7031C70.2396 62.3594 70.651 61.9688 71.0156 61.5312C71.3906 61.0938 71.7083 60.6458 71.9688 60.1875L72.1562 60.2812C71.9792 60.9271 71.6771 61.5625 71.25 62.1875C70.8229 62.8125 70.3125 63.3646 69.7188 63.8438C69.1354 64.3333 68.4948 64.724 67.7969 65.0156C67.1094 65.3177 66.4167 65.4688 65.7188 65.4688C64.7917 65.4688 63.9531 65.3229 63.2031 65.0312C62.4531 64.75 61.7812 64.3542 61.1875 63.8438C60.6042 63.3438 60.099 62.75 59.6719 62.0625C59.2448 61.3854 58.8906 60.651 58.6094 59.8594C58.3281 59.0573 58.1198 58.224 57.9844 57.3594C57.849 56.4844 57.7812 55.6094 57.7812 54.7344C57.7812 53.5885 57.901 52.3906 58.1406 51.1406C58.3802 49.8906 58.7344 48.6615 59.2031 47.4531C59.6719 46.2448 60.2448 45.099 60.9219 44.0156C61.6094 42.9219 62.3958 41.9635 63.2812 41.1406C64.1667 40.3073 65.1458 39.651 66.2188 39.1719C67.3021 38.6823 68.4688 38.4375 69.7188 38.4375C70.5 38.4375 71.2135 38.5521 71.8594 38.7812C72.5052 39 73.0573 39.3229 73.5156 39.75C73.9844 40.1771 74.3438 40.7031 74.5938 41.3281C74.8438 41.9427 74.9688 42.651 74.9688 43.4531ZM80.625 51.8125C80.625 51.9271 80.5833 52.0312 80.5 52.125C80.4167 52.2083 80.3177 52.25 80.2031 52.25C80.1094 52.25 80.0104 52.224 79.9062 52.1719C79.8021 52.1094 79.6823 52.0417 79.5469 51.9688C79.4219 51.8958 79.2708 51.8333 79.0938 51.7812C78.9271 51.7188 78.7344 51.6875 78.5156 51.6875C78.0052 51.6875 77.5469 51.849 77.1406 52.1719C76.7448 52.4844 76.4062 52.875 76.125 53.3438C75.8542 53.8125 75.6458 54.3125 75.5 54.8438C75.3542 55.375 75.2812 55.8542 75.2812 56.2812C75.2812 56.5833 75.3073 56.8802 75.3594 57.1719C75.4115 57.4531 75.5 57.7135 75.625 57.9531C75.7604 58.1823 75.9427 58.3698 76.1719 58.5156C76.401 58.651 76.6927 58.7188 77.0469 58.7188C77.4219 58.7188 77.7812 58.651 78.125 58.5156C78.4688 58.3698 78.7917 58.1823 79.0938 57.9531C79.1042 57.6198 79.1562 57.2708 79.25 56.9062C79.3542 56.5312 79.4844 56.1667 79.6406 55.8125C79.7969 55.4479 79.974 55.1042 80.1719 54.7812C80.3802 54.4583 80.5938 54.1719 80.8125 53.9219L81.0156 54.0469C80.901 54.401 80.8177 54.7656 80.7656 55.1406C80.7135 55.5156 80.6875 55.8854 80.6875 56.25C80.6875 56.625 80.7188 56.9792 80.7812 57.3125C80.8438 57.6458 80.9531 57.9375 81.1094 58.1875C81.2656 58.4271 81.4792 58.6198 81.75 58.7656C82.0208 58.901 82.3698 58.9688 82.7969 58.9688C83.3177 58.9688 83.7969 58.849 84.2344 58.6094C84.6719 58.3698 85.0573 58.0677 85.3906 57.7031L85.5156 57.7656C85.3281 58.1302 85.0833 58.4792 84.7812 58.8125C84.4792 59.1458 84.1406 59.4479 83.7656 59.7188C83.401 59.9792 83.0104 60.1875 82.5938 60.3438C82.1771 60.5 81.7656 60.5781 81.3594 60.5781C80.7865 60.5781 80.3177 60.4115 79.9531 60.0781C79.5885 59.7552 79.3385 59.3438 79.2031 58.8438C78.7656 59.2812 78.276 59.651 77.7344 59.9531C77.2031 60.2448 76.6406 60.3906 76.0469 60.3906C75.6094 60.3906 75.2188 60.3073 74.875 60.1406C74.5417 59.9844 74.2604 59.7708 74.0312 59.5C73.8021 59.2292 73.625 58.9115 73.5 58.5469C73.3854 58.1719 73.3281 57.7812 73.3281 57.375C73.3281 56.9062 73.401 56.4271 73.5469 55.9375C73.7031 55.4375 73.9115 54.9479 74.1719 54.4688C74.4427 53.9896 74.7604 53.5365 75.125 53.1094C75.4896 52.6823 75.8854 52.3073 76.3125 51.9844C76.75 51.6615 77.2083 51.4062 77.6875 51.2188C78.1667 51.0312 78.6562 50.9375 79.1562 50.9375C79.2708 50.9375 79.4115 50.9531 79.5781 50.9844C79.7448 51.0052 79.9062 51.0469 80.0625 51.1094C80.2188 51.1719 80.349 51.2604 80.4531 51.375C80.5677 51.4896 80.625 51.6354 80.625 51.8125ZM96.7812 57.7656C96.5938 58.1823 96.3542 58.5573 96.0625 58.8906C95.7812 59.224 95.474 59.5104 95.1406 59.75C94.8073 59.9792 94.4635 60.1562 94.1094 60.2812C93.7552 60.4167 93.4167 60.4844 93.0938 60.4844C92.4896 60.4844 91.9792 60.3802 91.5625 60.1719C91.1458 59.9635 90.8073 59.6823 90.5469 59.3281C90.2865 58.974 90.099 58.5573 89.9844 58.0781C89.8698 57.599 89.8125 57.0885 89.8125 56.5469C89.8125 56.1302 89.8438 55.6979 89.9062 55.25C89.9688 54.8021 90.0573 54.3698 90.1719 53.9531C90.1927 53.8906 90.2135 53.8177 90.2344 53.7344C90.2552 53.6406 90.2656 53.5625 90.2656 53.5C90.2656 53.4479 90.2344 53.4062 90.1719 53.375C89.9948 53.3125 89.8073 53.2552 89.6094 53.2031C89.4115 53.1406 89.2135 53.0729 89.0156 53C88.8281 52.9271 88.6458 52.8438 88.4688 52.75C88.3021 52.6562 88.1562 52.5365 88.0312 52.3906C88.0208 53.0156 87.9167 53.651 87.7188 54.2969C87.5208 54.9323 87.2552 55.5469 86.9219 56.1406C86.599 56.724 86.2188 57.2708 85.7812 57.7812C85.3438 58.2917 84.8802 58.7344 84.3906 59.1094L84.2344 58.9531C84.5365 58.6198 84.8125 58.224 85.0625 57.7656C85.3125 57.3073 85.526 56.8281 85.7031 56.3281C85.8802 55.8281 86.0156 55.3229 86.1094 54.8125C86.2135 54.3021 86.2656 53.8229 86.2656 53.375C86.2656 53.1458 86.2448 52.9323 86.2031 52.7344C86.1615 52.526 86.1146 52.3281 86.0625 52.1406C86.0208 51.9531 85.9792 51.776 85.9375 51.6094C85.8958 51.4323 85.875 51.2552 85.875 51.0781C85.875 50.7865 85.9688 50.5573 86.1562 50.3906C86.3438 50.224 86.5833 50.1406 86.875 50.1406C87.0312 50.1406 87.151 50.1875 87.2344 50.2812C87.3177 50.3646 87.3906 50.4688 87.4531 50.5938C87.5156 50.7188 87.5885 50.849 87.6719 50.9844C87.7552 51.1198 87.875 51.2344 88.0312 51.3281C88.2292 51.4427 88.4792 51.526 88.7812 51.5781C89.0833 51.6302 89.401 51.6771 89.7344 51.7188C90.0677 51.7604 90.401 51.8021 90.7344 51.8438C91.0677 51.8854 91.3646 51.9583 91.625 52.0625C91.8958 52.1562 92.1146 52.2917 92.2812 52.4688C92.4479 52.6354 92.5312 52.8646 92.5312 53.1562C92.5312 53.3021 92.5156 53.4479 92.4844 53.5938C92.4635 53.7292 92.4271 53.8594 92.375 53.9844C92.25 54.4219 92.1406 54.8698 92.0469 55.3281C91.9635 55.776 91.9219 56.224 91.9219 56.6719C91.9219 57.0573 91.9479 57.4115 92 57.7344C92.0625 58.0469 92.1719 58.3177 92.3281 58.5469C92.4844 58.776 92.6927 58.9531 92.9531 59.0781C93.2135 59.2031 93.5469 59.2656 93.9531 59.2656C94.5365 59.2656 95.0469 59.125 95.4844 58.8438C95.9219 58.5521 96.3073 58.1719 96.6406 57.7031L96.7812 57.7656ZM105.812 57.7656C105.542 58.1615 105.214 58.5312 104.828 58.875C104.453 59.2188 104.036 59.5156 103.578 59.7656C103.13 60.0156 102.656 60.2135 102.156 60.3594C101.667 60.5052 101.172 60.5781 100.672 60.5781C99.9635 60.5781 99.3021 60.4844 98.6875 60.2969C98.0729 60.1198 97.5365 59.8438 97.0781 59.4688C96.6198 59.0938 96.2604 58.625 96 58.0625C95.7396 57.4896 95.6094 56.8229 95.6094 56.0625C95.6094 55.3125 95.7448 54.6146 96.0156 53.9688C96.2969 53.3125 96.6771 52.7448 97.1562 52.2656C97.6458 51.776 98.2188 51.3906 98.875 51.1094C99.5312 50.8281 100.234 50.6875 100.984 50.6875C101.339 50.6875 101.667 50.7396 101.969 50.8438C102.281 50.9375 102.552 51.0833 102.781 51.2812C103.01 51.4688 103.188 51.7031 103.312 51.9844C103.448 52.2656 103.516 52.5885 103.516 52.9531C103.516 53.3906 103.427 53.776 103.25 54.1094C103.073 54.4427 102.839 54.7344 102.547 54.9844C102.255 55.2344 101.922 55.4427 101.547 55.6094C101.182 55.776 100.797 55.9115 100.391 56.0156C99.9948 56.1198 99.599 56.1979 99.2031 56.25C98.8177 56.2917 98.4635 56.3125 98.1406 56.3125H97.7656C97.901 57.2604 98.276 57.9844 98.8906 58.4844C99.5052 58.9844 100.354 59.2344 101.438 59.2344C102.208 59.2344 102.958 59.099 103.688 58.8281C104.427 58.5573 105.094 58.1823 105.688 57.7031L105.812 57.7656ZM97.7188 55.8438H98.1094C98.4844 55.8438 98.8698 55.7865 99.2656 55.6719C99.6615 55.5469 100.016 55.3698 100.328 55.1406C100.651 54.901 100.917 54.6094 101.125 54.2656C101.333 53.9219 101.438 53.5312 101.438 53.0938C101.438 52.6667 101.344 52.3125 101.156 52.0312C100.979 51.75 100.667 51.6094 100.219 51.6094C99.7604 51.6094 99.3698 51.75 99.0469 52.0312C98.7344 52.3021 98.4792 52.6406 98.2812 53.0469C98.0833 53.4427 97.9375 53.8646 97.8438 54.3125C97.7604 54.75 97.7188 55.1406 97.7188 55.4844V55.8438Z" fill="white"/>
</svg>
